<?xml version="1.0" encoding="UTF-8"?>
<svg version="1.1" xmlns="http://www.w3.org/2000/svg" width="64" height="64">
<path d="M0 0 C3 0.25 3 0.25 5 2.25 C5.125 5.875 5.125 5.875 5 9.25 C5.66 9.25 6.32 9.25 7 9.25 C6.95875 8.13625 6.9175 7.0225 6.875 5.875 C7 2.25 7 2.25 9 0.25 C12 0 12 0 15 0.25 C17 2.25 17 2.25 17.125 5.875 C17.08375 6.98875 17.0425 8.1025 17 9.25 C17.66 9.25 18.32 9.25 19 9.25 C18.95875 8.13625 18.9175 7.0225 18.875 5.875 C19 2.25 19 2.25 21 0.25 C24 0 24 0 27 0.25 C29 2.25 29 2.25 29.375 6.125 C29.69240859 8.99208411 29.96445549 10.19455057 31.5625 12.6875 C35.00823669 14.89630557 37.93561396 14.85667232 42 15.25 C44 17.25 44 17.25 44.25 20.25 C44 23.25 44 23.25 42 25.25 C38.375 25.375 38.375 25.375 35 25.25 C35 25.91 35 26.57 35 27.25 C36.11375 27.20875 37.2275 27.1675 38.375 27.125 C42 27.25 42 27.25 44 29.25 C44.25 32.25 44.25 32.25 44 35.25 C42 37.25 42 37.25 38.375 37.375 C37.26125 37.33375 36.1475 37.2925 35 37.25 C35 37.91 35 38.57 35 39.25 C36.670625 39.188125 36.670625 39.188125 38.375 39.125 C42 39.25 42 39.25 44 41.25 C44.25 44.25 44.25 44.25 44 47.25 C42 49.25 42 49.25 38.125 49.625 C35.25791589 49.94240859 34.05544943 50.21445549 31.5625 51.8125 C29.35369443 55.25823669 29.39332768 58.18561396 29 62.25 C27 64.25 27 64.25 24 64.5 C21 64.25 21 64.25 19 62.25 C18.875 58.625 18.875 58.625 19 55.25 C18.34 55.25 17.68 55.25 17 55.25 C17.04125 56.36375 17.0825 57.4775 17.125 58.625 C17 62.25 17 62.25 15 64.25 C12 64.5 12 64.5 9 64.25 C7 62.25 7 62.25 6.875 58.625 C6.91625 57.51125 6.9575 56.3975 7 55.25 C6.34 55.25 5.68 55.25 5 55.25 C5.04125 56.36375 5.0825 57.4775 5.125 58.625 C5 62.25 5 62.25 3 64.25 C0 64.5 0 64.5 -3 64.25 C-5 62.25 -5 62.25 -5.375 58.375 C-5.69240859 55.50791589 -5.96445549 54.30544943 -7.5625 51.8125 C-11.00823669 49.60369443 -13.93561396 49.64332768 -18 49.25 C-20 47.25 -20 47.25 -20.25 44.25 C-20 41.25 -20 41.25 -18 39.25 C-14.375 39.125 -14.375 39.125 -11 39.25 C-11 38.59 -11 37.93 -11 37.25 C-12.11375 37.29125 -13.2275 37.3325 -14.375 37.375 C-18 37.25 -18 37.25 -20 35.25 C-20.25 32.25 -20.25 32.25 -20 29.25 C-18 27.25 -18 27.25 -14.375 27.125 C-12.704375 27.186875 -12.704375 27.186875 -11 27.25 C-11 26.59 -11 25.93 -11 25.25 C-12.670625 25.311875 -12.670625 25.311875 -14.375 25.375 C-18 25.25 -18 25.25 -20 23.25 C-20.25 20.25 -20.25 20.25 -20 17.25 C-18 15.25 -18 15.25 -16.0546875 15.0546875 C-14.03645833 15.11979167 -12.01822917 15.18489583 -10 15.25 C-9.71125 14.610625 -9.4225 13.97125 -9.125 13.3125 C-8 11.25 -8 11.25 -6 10.25 C-5.74280183 8.22456444 -5.49157878 6.19649776 -5.34375 4.16015625 C-4.72110169 0.70021277 -3.34534374 0.27877865 0 0 Z M-1 4.25 C-1 5.9 -1 7.55 -1 9.25 C-0.34 9.25 0.32 9.25 1 9.25 C1 7.6 1 5.95 1 4.25 C0.34 4.25 -0.32 4.25 -1 4.25 Z M11 4.25 C11 5.9 11 7.55 11 9.25 C11.66 9.25 12.32 9.25 13 9.25 C13 7.6 13 5.95 13 4.25 C12.34 4.25 11.68 4.25 11 4.25 Z M23 4.25 C23 5.9 23 7.55 23 9.25 C23.66 9.25 24.32 9.25 25 9.25 C25 7.6 25 5.95 25 4.25 C24.34 4.25 23.68 4.25 23 4.25 Z M-5.39257812 14.85742188 C-7.54247096 18.05744462 -7.51693573 20.22218538 -7.53125 24.0625 C-7.5350769 24.71323486 -7.53890381 25.36396973 -7.54284668 26.03442383 C-7.54556076 27.40610304 -7.53823453 28.77783444 -7.52148438 30.14941406 C-7.50006119 32.24401685 -7.52129637 34.33519084 -7.546875 36.4296875 C-7.54423163 37.76563254 -7.53910643 39.10157545 -7.53125 40.4375 C-7.52673828 41.64792969 -7.52222656 42.85835937 -7.51757812 44.10546875 C-7.21817758 47.28314131 -7.21817758 47.28314131 -5.39257812 49.64257812 C-2.19255538 51.79247096 -0.02781462 51.76693573 3.8125 51.78125 C4.46323486 51.7850769 5.11396973 51.78890381 5.78442383 51.79284668 C7.15610304 51.79556076 8.52783444 51.78823453 9.89941406 51.77148438 C11.99401685 51.75006119 14.08519084 51.77129637 16.1796875 51.796875 C17.51563254 51.79423163 18.85157545 51.78910643 20.1875 51.78125 C22.00314453 51.77448242 22.00314453 51.77448242 23.85546875 51.76757812 C27.03314131 51.46817758 27.03314131 51.46817758 29.39257812 49.64257812 C31.54247096 46.44255538 31.51693573 44.27781462 31.53125 40.4375 C31.5350769 39.78676514 31.53890381 39.13603027 31.54284668 38.46557617 C31.54556076 37.09389696 31.53823453 35.72216556 31.52148438 34.35058594 C31.50006119 32.25598315 31.52129637 30.16480916 31.546875 28.0703125 C31.54423163 26.73436746 31.53910643 25.39842455 31.53125 24.0625 C31.52673828 22.85207031 31.52222656 21.64164063 31.51757812 20.39453125 C31.21817758 17.21685869 31.21817758 17.21685869 29.39257812 14.85742188 C26.19255538 12.70752904 24.02781462 12.73306427 20.1875 12.71875 C19.21139771 12.71300964 19.21139771 12.71300964 18.21557617 12.70715332 C16.84389696 12.70443924 15.47216556 12.71176547 14.10058594 12.72851562 C12.00598315 12.74993881 9.91480916 12.72870363 7.8203125 12.703125 C6.48436746 12.70576837 5.14842455 12.71089357 3.8125 12.71875 C2.60207031 12.72326172 1.39164063 12.72777344 0.14453125 12.73242188 C-3.03314131 13.03182242 -3.03314131 13.03182242 -5.39257812 14.85742188 Z M-16 19.25 C-16 19.91 -16 20.57 -16 21.25 C-14.35 21.25 -12.7 21.25 -11 21.25 C-11 20.59 -11 19.93 -11 19.25 C-12.65 19.25 -14.3 19.25 -16 19.25 Z M35 19.25 C35 19.91 35 20.57 35 21.25 C36.65 21.25 38.3 21.25 40 21.25 C40 20.59 40 19.93 40 19.25 C38.35 19.25 36.7 19.25 35 19.25 Z M-16 31.25 C-16 31.91 -16 32.57 -16 33.25 C-14.35 33.25 -12.7 33.25 -11 33.25 C-11 32.59 -11 31.93 -11 31.25 C-12.65 31.25 -14.3 31.25 -16 31.25 Z M35 31.25 C35 31.91 35 32.57 35 33.25 C36.65 33.25 38.3 33.25 40 33.25 C40 32.59 40 31.93 40 31.25 C38.35 31.25 36.7 31.25 35 31.25 Z M-16 43.25 C-16 43.91 -16 44.57 -16 45.25 C-14.35 45.25 -12.7 45.25 -11 45.25 C-11 44.59 -11 43.93 -11 43.25 C-12.65 43.25 -14.3 43.25 -16 43.25 Z M35 43.25 C35 43.91 35 44.57 35 45.25 C36.65 45.25 38.3 45.25 40 45.25 C40 44.59 40 43.93 40 43.25 C38.35 43.25 36.7 43.25 35 43.25 Z M-1 55.25 C-1 56.9 -1 58.55 -1 60.25 C-0.34 60.25 0.32 60.25 1 60.25 C1 58.6 1 56.95 1 55.25 C0.34 55.25 -0.32 55.25 -1 55.25 Z M11 55.25 C11 56.9 11 58.55 11 60.25 C11.66 60.25 12.32 60.25 13 60.25 C13 58.6 13 56.95 13 55.25 C12.34 55.25 11.68 55.25 11 55.25 Z M23 55.25 C23 56.9 23 58.55 23 60.25 C23.66 60.25 24.32 60.25 25 60.25 C25 58.6 25 56.95 25 55.25 C24.34 55.25 23.68 55.25 23 55.25 Z " fill="#000000" transform="translate(20,-0.25)"/>
<path d="M0 0 C0.65830811 -0.00191345 1.31661621 -0.0038269 1.99487305 -0.00579834 C3.3868854 -0.0071595 4.77891047 -0.00346783 6.17089844 0.00488281 C8.30432589 0.015584 10.43691131 0.00498594 12.5703125 -0.0078125 C13.92187686 -0.00649089 15.2734407 -0.00392847 16.625 0 C18.47544922 0.00338379 18.47544922 0.00338379 20.36328125 0.00683594 C23.3125 0.265625 23.3125 0.265625 25.3125 2.265625 C25.57128906 5.21484375 25.57128906 5.21484375 25.578125 8.953125 C25.58099518 9.94058716 25.58099518 9.94058716 25.58392334 10.94799805 C25.5852845 12.3400104 25.58159283 13.73203547 25.57324219 15.12402344 C25.562541 17.25745089 25.57313906 19.39003631 25.5859375 21.5234375 C25.58461589 22.87500186 25.58205347 24.2265657 25.578125 25.578125 C25.57586914 26.81175781 25.57361328 28.04539062 25.57128906 29.31640625 C25.3125 32.265625 25.3125 32.265625 23.3125 34.265625 C20.36328125 34.52441406 20.36328125 34.52441406 16.625 34.53125 C15.96669189 34.53316345 15.30838379 34.5350769 14.63012695 34.53704834 C13.2381146 34.5384095 11.84608953 34.53471783 10.45410156 34.52636719 C8.32067411 34.515666 6.18808869 34.52626406 4.0546875 34.5390625 C2.70312314 34.53774089 1.3515593 34.53517847 0 34.53125 C-1.23363281 34.52899414 -2.46726562 34.52673828 -3.73828125 34.52441406 C-6.6875 34.265625 -6.6875 34.265625 -8.6875 32.265625 C-8.94628906 29.31640625 -8.94628906 29.31640625 -8.953125 25.578125 C-8.95503845 24.91981689 -8.9569519 24.26150879 -8.95892334 23.58325195 C-8.9602845 22.1912396 -8.95659283 20.79921453 -8.94824219 19.40722656 C-8.937541 17.27379911 -8.94813906 15.14121369 -8.9609375 13.0078125 C-8.95961589 11.65624814 -8.95705347 10.3046843 -8.953125 8.953125 C-8.95086914 7.71949219 -8.94861328 6.48585938 -8.94628906 5.21484375 C-8.43085987 -0.65910405 -5.04652516 0.00922823 0 0 Z M3.3125 9.265625 C0.85394009 14.52885277 -1.24926509 19.63253825 -2.6875 25.265625 C-2.0275 25.265625 -1.3675 25.265625 -0.6875 25.265625 C-0.3575 24.605625 -0.0275 23.945625 0.3125 23.265625 C3.6875 23.140625 3.6875 23.140625 7.3125 23.265625 C7.9725 23.925625 8.6325 24.585625 9.3125 25.265625 C10.65655202 23.15319273 10.65655202 23.15319273 9.38671875 20.26171875 C8.92910156 19.08738281 8.47148438 17.91304687 8 16.703125 C7.55011719 15.52621094 7.10023437 14.34929688 6.63671875 13.13671875 C5.62774139 10.16287187 5.62774139 10.16287187 3.3125 9.265625 Z M16.3125 9.265625 C16.3125 14.215625 16.3125 19.165625 16.3125 24.265625 C16.9725 24.265625 17.6325 24.265625 18.3125 24.265625 C18.3125 19.645625 18.3125 15.025625 18.3125 10.265625 C17.6525 9.935625 16.9925 9.605625 16.3125 9.265625 Z " fill="#434356" transform="translate(23.6875,14.734375)"/>
<path d="M0 0 C0.66 0.33 1.32 0.66 2 1 C2.625 3.5625 2.625 3.5625 3 6 C1.35 6 -0.3 6 -2 6 C-1.125 1.125 -1.125 1.125 0 0 Z " fill="#434354" transform="translate(27,29)"/>
</svg>
