<?xml version="1.0" encoding="UTF-8"?>
<svg version="1.1" xmlns="http://www.w3.org/2000/svg" width="68" height="68">
<path d="M0 0 C3.23857278 1.30921027 4.60256422 2.52033613 6.8125 5.1875 C8.42252071 9.00070694 8.20950494 11.87973613 8 16 C8.86625 15.896875 9.7325 15.79375 10.625 15.6875 C15.28238905 16.11873973 16.68789149 17.76491727 20 21 C21.85749351 24.71498702 21.58415825 28.9553391 21 33 C18.625 36.125 18.625 36.125 16 38 C15.34 38 14.68 38 14 38 C14 42.95 14 47.9 14 53 C14.99 53.33 15.98 53.66 17 54 C17.1953125 60.0546875 17.1953125 60.0546875 17 62 C14.49055695 64.50944305 13.68235913 64.2525033 10.21484375 64.25878906 C9.2204126 64.26509338 8.22598145 64.27139771 7.20141602 64.27789307 C6.12432373 64.2738446 5.04723145 64.26979614 3.9375 64.265625 C2.835271 64.26753845 1.73304199 64.2694519 0.59741211 64.27142334 C-1.73616768 64.27278612 -4.06975503 64.26908322 -6.40332031 64.26074219 C-9.98519847 64.25004421 -13.56657503 64.26063458 -17.1484375 64.2734375 C-19.41145945 64.27211592 -21.67448108 64.26955357 -23.9375 64.265625 C-25.01459229 64.26967346 -26.09168457 64.27372192 -27.20141602 64.27789307 C-28.19584717 64.27158875 -29.19027832 64.26528442 -30.21484375 64.25878906 C-31.09261475 64.25719788 -31.97038574 64.25560669 -32.87475586 64.25396729 C-35 64 -35 64 -37 62 C-37.26991906 59.31160615 -37.08737357 56.70858064 -37 54 C-35.515 53.505 -35.515 53.505 -34 53 C-34 48.38 -34 43.76 -34 39 C-35.98 38.34 -37.96 37.68 -40 37 C-42.8210335 34.2148271 -43.4511758 32.04314171 -43.5 28.125 C-43.38954229 24.56405395 -42.99693607 22.28346876 -40.8125 19.4375 C-38.00957126 17.00829509 -36.64626587 16.20835805 -33 16 C-32.938125 15.2575 -32.87625 14.515 -32.8125 13.75 C-31.69276462 9.9601264 -30.43803208 8.93389305 -27 7 C-24.84375 6.9296875 -24.84375 6.9296875 -22.5 7.0625 C-18.67179982 7.25963323 -18.28523629 7.23562998 -15.125 4.625 C-14.42375 3.75875 -13.7225 2.8925 -13 2 C-8.74178609 -0.83880927 -4.99661255 -0.51165313 0 0 Z M-31 27 C-31.41737872 29.71483594 -31.41737872 29.71483594 -31.29296875 32.8828125 C-31.28547607 33.93355957 -31.2779834 34.98430664 -31.27026367 36.06689453 C-31.24295166 37.40606934 -31.21563965 38.74524414 -31.1875 40.125 C-31.125625 44.37375 -31.06375 48.6225 -31 53 C-17.14 53 -3.28 53 11 53 C11.0928125 46.626875 11.0928125 46.626875 11.1875 40.125 C11.21481201 38.7858252 11.24212402 37.44665039 11.27026367 36.06689453 C11.28150269 34.49077393 11.28150269 34.49077393 11.29296875 32.8828125 C11.31653442 31.26463623 11.31653442 31.26463623 11.34057617 29.61376953 C11.22818604 28.75122559 11.1157959 27.88868164 11 27 C7.24542523 24.49695016 4.28434902 24.71129743 -0.0625 24.734375 C-0.85019775 24.73246155 -1.63789551 24.7305481 -2.44946289 24.72857666 C-4.11377278 24.72721653 -5.77809334 24.73090101 -7.44238281 24.73925781 C-9.99047669 24.74996 -12.53786556 24.73935699 -15.0859375 24.7265625 C-16.70312656 24.72788413 -18.32031517 24.73044658 -19.9375 24.734375 C-20.70006104 24.73032654 -21.46262207 24.72627808 -22.24829102 24.72210693 C-26.03498674 24.75569063 -27.77148266 24.8476551 -31 27 Z M-11 58 C-11 58.66 -11 59.32 -11 60 C-10.34 60 -9.68 60 -9 60 C-9 59.34 -9 58.68 -9 58 C-9.66 58 -10.32 58 -11 58 Z " fill="#000000" transform="translate(45,2)"/>
<path d="M0 0 C2.6875 -0.3125 2.6875 -0.3125 5 0 C4.875 2.1875 4.875 2.1875 4 5 C2.04072937 6.7143618 0.04119788 8.38405168 -2 10 C-2.33 10.99 -2.66 11.98 -3 13 C-5.0625 13.6875 -5.0625 13.6875 -7 14 C-7.391875 13.34 -7.78375 12.68 -8.1875 12 C-9.8442262 9.77336403 -9.8442262 9.77336403 -12.5 9.5 C-15.1557738 9.77336403 -15.1557738 9.77336403 -16.8125 12 C-17.204375 12.66 -17.59625 13.32 -18 14 C-19.65 13.67 -21.3 13.34 -23 13 C-22.8125 11.1875 -22.8125 11.1875 -22 9 C-20.36368108 7.95107762 -18.69514137 6.95093297 -17 6 C-16.34 5.01 -15.68 4.02 -15 3 C-11.31245243 3.49831724 -9.39509338 4.10067643 -7 7 C-4.03807876 5.87651263 -3.12085933 5.22069964 -1.5625 2.375 C-1.046875 1.59125 -0.53125 0.8075 0 0 Z " fill="#000000" transform="translate(44,29)"/>
<path d="M0 0 C1.98 0 3.96 0 6 0 C6 4.62 6 9.24 6 14 C4.02 14 2.04 14 0 14 C0 9.38 0 4.76 0 0 Z " fill="#000000" transform="translate(43,39)"/>
<path d="M0 0 C1.98 0 3.96 0 6 0 C6 3.3 6 6.6 6 10 C4.02 10 2.04 10 0 10 C0 6.7 0 3.4 0 0 Z " fill="#000000" transform="translate(28,43)"/>
<path d="M0 0 C1.98 0 3.96 0 6 0 C6 2.64 6 5.28 6 8 C4.02 8 2.04 8 0 8 C0 5.36 0 2.72 0 0 Z " fill="#000000" transform="translate(36,45)"/>
<path d="M0 0 C1.98 0 3.96 0 6 0 C6 1.98 6 3.96 6 6 C4.02 6 2.04 6 0 6 C0 4.02 0 2.04 0 0 Z " fill="#000000" transform="translate(21,47)"/>
</svg>
