<?xml version="1.0" encoding="UTF-8"?>
<svg version="1.1" xmlns="http://www.w3.org/2000/svg" width="50" height="50">
<path d="M0 0 C2 2 2 2 2.22705078 4.06298828 C2.21657715 4.89040527 2.20610352 5.71782227 2.1953125 6.5703125 C2.18886719 7.46621094 2.18242188 8.36210937 2.17578125 9.28515625 C2.15902344 10.22230469 2.14226563 11.15945313 2.125 12.125 C2.11597656 13.06988281 2.10695312 14.01476562 2.09765625 14.98828125 C2.07404522 17.32577292 2.04111516 19.66276123 2 22 C0.68 22.33 -0.64 22.66 -2 23 C-1.360625 23.12375 -0.72125 23.2475 -0.0625 23.375 C0.9584375 23.684375 0.9584375 23.684375 2 24 C2.495 24.99 2.495 24.99 3 26 C4.32 26 5.64 26 7 26 C7.66 26.99 8.32 27.98 9 29 C8.505 29.99 8.505 29.99 8 31 C8.99 31.495 8.99 31.495 10 32 C10 33.98 10 35.96 10 38 C9.01 38.495 9.01 38.495 8 39 C8 40.32 8 41.64 8 43 C7.01 43.66 6.02 44.32 5 45 C4.01 44.505 4.01 44.505 3 44 C2.505 44.99 2.505 44.99 2 46 C0.02 46 -1.96 46 -4 46 C-4.33 45.34 -4.66 44.68 -5 44 C-6.32 44 -7.64 44 -9 44 C-9.66 42.68 -10.32 41.36 -11 40 C-10.67 39.67 -10.34 39.34 -10 39 C-10.66 38.67 -11.32 38.34 -12 38 C-12 36.02 -12 34.04 -12 32 C-11.01 31.505 -11.01 31.505 -10 31 C-10 29.68 -10 28.36 -10 27 C-10 26.67 -10 26.34 -10 26 C-11.18335937 26.04640625 -12.36671875 26.0928125 -13.5859375 26.140625 C-22.48016659 26.38136539 -30.0097591 26.49702 -38 22 C-36.29376166 27.36957347 -36.29376166 27.36957347 -32.0625 30.875 C-26.93591304 32.67593464 -21.38218475 32.74370549 -16 33 C-15.67 33.99 -15.34 34.98 -15 36 C-23.62396205 36.48661855 -30.23800667 35.92480024 -38 32 C-36.52705237 35.89897903 -35.64009448 37.65732316 -31.90625 39.65625 C-27.82529256 41.26569378 -23.91234294 41.54820951 -19.5625 41.6875 C-18.83095703 41.72166016 -18.09941406 41.75582031 -17.34570312 41.79101562 C-15.56430438 41.87251753 -13.78218251 41.93795523 -12 42 C-12 42.99 -12 43.98 -12 45 C-29.84176416 45.79690262 -29.84176416 45.79690262 -38 41 C-40.94566039 38.05433961 -40.40192098 34.84427138 -40.4765625 30.88671875 C-40.49270599 30.08015335 -40.50884949 29.27358795 -40.52548218 28.44258118 C-40.55316181 26.73369951 -40.57460719 25.02470731 -40.59033203 23.31567383 C-40.62475131 20.70635336 -40.71247568 18.10211489 -40.80078125 15.49414062 C-41.02795882 3.37150564 -41.02795882 3.37150564 -38.31542969 -0.24755859 C-36.18548726 -1.62189036 -34.45073447 -2.38180943 -32 -3 C-31.33516602 -3.18884766 -30.67033203 -3.37769531 -29.98535156 -3.57226562 C-20.4189098 -5.63330915 -8.4445901 -5.16477162 0 0 Z M-36 3 C-37.12815365 5.6147267 -37.12815365 5.6147267 -37 8 C-30.85667236 12.23207015 -26.68249263 13.22313065 -19.3125 13.3125 C-18.53455078 13.34150391 -17.75660156 13.37050781 -16.95507812 13.40039062 C-11.29930609 13.46171259 -6.61515755 12.43820714 -2 9 C-0.87184635 6.3852733 -0.87184635 6.3852733 -1 4 C-7.14332764 -0.23207015 -11.31750737 -1.22313065 -18.6875 -1.3125 C-19.46544922 -1.34150391 -20.24339844 -1.37050781 -21.04492188 -1.40039062 C-26.70069391 -1.46171259 -31.38484245 -0.43820714 -36 3 Z M-38 12 C-37.9688059 14.86734521 -37.9688059 14.86734521 -37 18 C-31.25836154 22.61827441 -26.46466369 23.22577207 -19.3125 23.3125 C-18.53455078 23.34150391 -17.75660156 23.37050781 -16.95507812 23.40039062 C-11.23746503 23.46238309 -6.70788797 22.36663364 -2 19 C0.36980013 16.04622502 0.36980013 16.04622502 0 12 C-0.76957031 12.32484375 -0.76957031 12.32484375 -1.5546875 12.65625 C-12.88481673 16.77629699 -26.86010876 16.70226565 -38 12 Z M-6 24 C-5.67 24.99 -5.34 25.98 -5 27 C-4.67 26.01 -4.34 25.02 -4 24 C-4.66 24 -5.32 24 -6 24 Z M-6 30 C-6.74926071 33.66305234 -7.2380014 36.42355152 -6 40 C-2.33694766 40.74926071 0.42355152 41.2380014 4 40 C4.74926071 36.33694766 5.2380014 33.57644848 4 30 C0.33694766 29.25073929 -2.42355152 28.7619986 -6 30 Z " fill="#000000" transform="translate(40,4)"/>
<path d="M0 0 C3 0.125 3 0.125 4 1.125 C4.125 4.125 4.125 4.125 4 7.125 C3 8.125 3 8.125 0 8.25 C-3 8.125 -3 8.125 -4 7.125 C-4.125 4.125 -4.125 4.125 -4 1.125 C-3 0.125 -3 0.125 0 0 Z M-1 3.125 C-1 3.785 -1 4.445 -1 5.125 C-0.34 5.125 0.32 5.125 1 5.125 C1 4.465 1 3.805 1 3.125 C0.34 3.125 -0.32 3.125 -1 3.125 Z " fill="#000000" transform="translate(39,34.875)"/>
</svg>
