<?xml version="1.0" encoding="UTF-8"?>
<svg version="1.1" xmlns="http://www.w3.org/2000/svg" width="64" height="64">
<path d="M0 0 C2.5654594 2.5654594 2.54046087 4.47686668 3 8 C5.97 8 8.94 8 12 8 C12 11.63 12 15.26 12 19 C13.65 19 15.3 19 17 19 C17 21.64 17 24.28 17 27 C15.35 27 13.7 27 12 27 C12 28.98 12 30.96 12 33 C13.98 33 15.96 33 18 33 C18 36.3 18 39.6 18 43 C19.65 43 21.3 43 23 43 C23 45.64 23 48.28 23 51 C21.35 51 19.7 51 18 51 C18 52.98 18 54.96 18 57 C18.99 57 19.98 57 21 57 C21 57.66 21 58.32 21 59 C18.36 59 15.72 59 13 59 C13 58.34 13 57.68 13 57 C13.99 57 14.98 57 16 57 C16 55.02 16 53.04 16 51 C14.35 51 12.7 51 11 51 C11 48.36 11 45.72 11 43 C12.65 43 14.3 43 16 43 C15.505 39.535 15.505 39.535 15 36 C12.36 35.67 9.72 35.34 7 35 C6.67 36.32 6.34 37.64 6 39 C4.68 39 3.36 39 2 39 C2 40.32 2 41.64 2 43 C3.65 43 5.3 43 7 43 C7 45.64 7 48.28 7 51 C5.35 51 3.7 51 2 51 C2 52.98 2 54.96 2 57 C2.99 57 3.98 57 5 57 C5 57.66 5 58.32 5 59 C2.36 59 -0.28 59 -3 59 C-3 58.34 -3 57.68 -3 57 C-2.01 57 -1.02 57 0 57 C0 55.02 0 53.04 0 51 C-1.65 51 -3.3 51 -5 51 C-5 48.36 -5 45.72 -5 43 C-3.35 43 -1.7 43 0 43 C0 41.68 0 40.36 0 39 C-4.62 39 -9.24 39 -14 39 C-14 40.32 -14 41.64 -14 43 C-12.35 43 -10.7 43 -9 43 C-9 45.64 -9 48.28 -9 51 C-10.65 51 -12.3 51 -14 51 C-14 52.98 -14 54.96 -14 57 C-13.01 57 -12.02 57 -11 57 C-11 57.66 -11 58.32 -11 59 C-13.64 59 -16.28 59 -19 59 C-19 58.34 -19 57.68 -19 57 C-18.01 57 -17.02 57 -16 57 C-16 55.02 -16 53.04 -16 51 C-17.65 51 -19.3 51 -21 51 C-21 48.36 -21 45.72 -21 43 C-19.35 43 -17.7 43 -16 43 C-16 41.68 -16 40.36 -16 39 C-17.65 38.67 -19.3 38.34 -21 38 C-21 37.01 -21 36.02 -21 35 C-23.64 35.33 -26.28 35.66 -29 36 C-29.33 38.31 -29.66 40.62 -30 43 C-28.35 43 -26.7 43 -25 43 C-25 45.64 -25 48.28 -25 51 C-26.65 51 -28.3 51 -30 51 C-30 52.98 -30 54.96 -30 57 C-29.01 57 -28.02 57 -27 57 C-27 57.66 -27 58.32 -27 59 C-29.64 59 -32.28 59 -35 59 C-35 58.34 -35 57.68 -35 57 C-34.01 57 -33.02 57 -32 57 C-32 55.02 -32 53.04 -32 51 C-33.65 51 -35.3 51 -37 51 C-37 48.36 -37 45.72 -37 43 C-35.35 43 -33.7 43 -32 43 C-32 39.7 -32 36.4 -32 33 C-30.02 33 -28.04 33 -26 33 C-26 31.02 -26 29.04 -26 27 C-27.65 27 -29.3 27 -31 27 C-31 24.36 -31 21.72 -31 19 C-29.35 19 -27.7 19 -26 19 C-26 15.37 -26 11.74 -26 8 C-23.03 8 -20.06 8 -17 8 C-16.773125 6.88625 -16.54625 5.7725 -16.3125 4.625 C-15 1 -15 1 -13 -0.5 C-8.61588339 -1.2306861 -4.34236266 -0.95301411 0 0 Z M-8 1 C-8 1.99 -8 2.98 -8 4 C-9.32 3.67 -10.64 3.34 -12 3 C-12.33 3.66 -12.66 4.32 -13 5 C-12.67 5.99 -12.34 6.98 -12 8 C-12.99 8 -13.98 8 -15 8 C-15 8.66 -15 9.32 -15 10 C-14.01 10 -13.02 10 -12 10 C-12.33 11.32 -12.66 12.64 -13 14 C-12.34 14.33 -11.68 14.66 -11 15 C-10.01 14.67 -9.02 14.34 -8 14 C-8 14.99 -8 15.98 -8 17 C-7.34 17 -6.68 17 -6 17 C-6 16.01 -6 15.02 -6 14 C-4.68 14.33 -3.36 14.66 -2 15 C-1.67 14.34 -1.34 13.68 -1 13 C-1.33 12.01 -1.66 11.02 -2 10 C-1.01 10 -0.02 10 1 10 C1 9.34 1 8.68 1 8 C0.01 8 -0.98 8 -2 8 C-1.67 6.68 -1.34 5.36 -1 4 C-1.66 3.67 -2.32 3.34 -3 3 C-3.99 3.33 -4.98 3.66 -6 4 C-6 3.01 -6 2.02 -6 1 C-6.66 1 -7.32 1 -8 1 Z M-24 11 C-24.07148199 12.35243917 -24.08399454 13.70834367 -24.0625 15.0625 C-24.041875 16.361875 -24.02125 17.66125 -24 19 C-22.35 19 -20.7 19 -19 19 C-19 21.64 -19 24.28 -19 27 C-20.65 27 -22.3 27 -24 27 C-24 28.98 -24 30.96 -24 33 C-21.83125748 32.49396008 -20.00032373 32.00016187 -18 31 C-17.27840576 29.35636866 -16.60648579 27.68949614 -16 26 C-14.2984375 25.7834375 -14.2984375 25.7834375 -12.5625 25.5625 C-9.19222799 25.38828522 -9.19222799 25.38828522 -8 24 C-2.26388889 23.72685185 -2.26388889 23.72685185 0 24 C2 26 2 26 2.375 28.5 C2.74066434 31.12376914 2.74066434 31.12376914 4.875 32.3125 C7.10348125 33.15391014 7.10348125 33.15391014 10 33 C10 31.02 10 29.04 10 27 C8.35 27 6.7 27 5 27 C5 24.36 5 21.72 5 19 C6.65 19 8.3 19 10 19 C10.020625 17.700625 10.04125 16.40125 10.0625 15.0625 C10.07410156 14.33160156 10.08570313 13.60070312 10.09765625 12.84765625 C10.20561184 10.98267859 10.20561184 10.98267859 9 10 C7.00041636 9.95919217 4.99954746 9.95745644 3 10 C2.01 12.31 1.02 14.62 0 17 C-11.34137761 18.62963484 -11.34137761 18.62963484 -15 16 C-16.3125 12.875 -16.3125 12.875 -17 10 C-20.80621045 9.56152641 -20.80621045 9.56152641 -24 11 Z M-28 21 C-28 22.32 -28 23.64 -28 25 C-26.02 25 -24.04 25 -22 25 C-22 23.68 -22 22.36 -22 21 C-23.98 21 -25.96 21 -28 21 Z M8 21 C8 22.32 8 23.64 8 25 C9.98 25 11.96 25 14 25 C14 23.68 14 22.36 14 21 C12.02 21 10.04 21 8 21 Z M-7 27 C-8.093125 27.061875 -9.18625 27.12375 -10.3125 27.1875 C-14.20716507 27.66174314 -14.20716507 27.66174314 -16.5 30.875 C-18.41076231 33.92706534 -18.41076231 33.92706534 -17 37 C-10.4 37 -3.8 37 3 37 C3 35.68 3 34.36 3 33 C2.01 33 1.02 33 0 33 C0.020625 32.030625 0.04125 31.06125 0.0625 30.0625 C0.35618499 27.12534105 0.35618499 27.12534105 -1 26 C-4.28894893 25.59371033 -4.28894893 25.59371033 -7 27 Z M-34 45 C-34 46.32 -34 47.64 -34 49 C-32.02 49 -30.04 49 -28 49 C-28 47.68 -28 46.36 -28 45 C-29.98 45 -31.96 45 -34 45 Z M-18 45 C-18 46.32 -18 47.64 -18 49 C-16.02 49 -14.04 49 -12 49 C-12 47.68 -12 46.36 -12 45 C-13.98 45 -15.96 45 -18 45 Z M-2 45 C-2 46.32 -2 47.64 -2 49 C-0.02 49 1.96 49 4 49 C4 47.68 4 46.36 4 45 C2.02 45 0.04 45 -2 45 Z M14 45 C14 46.32 14 47.64 14 49 C15.98 49 17.96 49 20 49 C20 47.68 20 46.36 20 45 C18.02 45 16.04 45 14 45 Z " fill="#000000" transform="translate(39,3)"/>
<path d="M0 0 C3 0.125 3 0.125 4 1.125 C4.125 4.125 4.125 4.125 4 7.125 C3 8.125 3 8.125 0 8.25 C-3 8.125 -3 8.125 -4 7.125 C-4.125 4.125 -4.125 4.125 -4 1.125 C-3 0.125 -3 0.125 0 0 Z M-1 3.125 C-1 3.785 -1 4.445 -1 5.125 C-0.34 5.125 0.32 5.125 1 5.125 C1 4.465 1 3.805 1 3.125 C0.34 3.125 -0.32 3.125 -1 3.125 Z " fill="#000000" transform="translate(32,7.875)"/>
</svg>
