<?xml version="1.0" encoding="UTF-8"?>
<svg version="1.1" xmlns="http://www.w3.org/2000/svg" width="64" height="64">
<path d="M0 0 C3.625 0.25 3.625 0.25 5.3263092 1.5083313 C6.9108397 3.63333841 7.0094303 4.73590297 7.02905273 7.36669922 C7.04173691 8.19120575 7.05442108 9.01571228 7.06748962 9.86520386 C7.06455399 10.75273346 7.06161835 11.64026306 7.05859375 12.5546875 C7.0638356 13.47081818 7.06907745 14.38694885 7.07447815 15.33084106 C7.08090221 17.26921577 7.07955639 19.20762943 7.07104492 21.14599609 C7.06255118 24.10715557 7.09126414 27.06637574 7.12304688 30.02734375 C7.12465942 31.91145776 7.12408034 33.79557517 7.12109375 35.6796875 C7.13794472 37.00490921 7.13794472 37.00490921 7.15513611 38.35690308 C7.10821084 42.51277421 6.9756879 44.69146877 4.71899414 48.28564453 C1.99590147 50.84015119 1.08436532 51.20666365 -2.6875 51.5625 C-7.06888218 51.19119643 -8.16557784 50.13847995 -11.375 47.25 C-12.550625 46.775625 -13.72625 46.30125 -14.9375 45.8125 C-18.7406517 43.73654383 -19.5151803 40.958271 -20.8125 36.9375 C-22.63176952 29.96493486 -23.4683777 24.95231835 -20.375 18.25 C-20.08625 17.198125 -19.7975 16.14625 -19.5 15.0625 C-18.18249639 11.76874096 -17.4538877 11.64046541 -14.375 10.25 C-13.78429986 8.30396726 -13.78429986 8.30396726 -13.375 6.25 C-11.02490986 3.03408717 -8.08549046 2.37927971 -4.375 1.25 C-3.375 0.25 -3.375 0.25 0 0 Z M-1.375 4.25 C-1.705 5.57 -2.035 6.89 -2.375 8.25 C-3.32375 8.04375 -4.2725 7.8375 -5.25 7.625 C-6.28125 7.50125 -7.3125 7.3775 -8.375 7.25 C-9.035 7.91 -9.695 8.57 -10.375 9.25 C-10.28928339 11.34291157 -10.28928339 11.34291157 -9.375 13.25 C-8.385 13.58 -7.395 13.91 -6.375 14.25 C-6.045 15.24 -5.715 16.23 -5.375 17.25 C-6.468125 16.92 -7.56125 16.59 -8.6875 16.25 C-12.22078884 15.11913351 -12.22078884 15.11913351 -15.375 15.25 C-15.375 16.24 -15.375 17.23 -15.375 18.25 C-14.715 18.58 -14.055 18.91 -13.375 19.25 C-13.045 20.24 -12.715 21.23 -12.375 22.25 C-14.025 22.58 -15.675 22.91 -17.375 23.25 C-18.5258314 27.32079208 -18.5258314 27.32079208 -17.25 31.125 C-14.71727807 32.64463316 -13.2789635 32.75819361 -10.375 32.25 C-8.39889614 30.20575462 -7.375 29.1323175 -7.375 26.25 C-6.385 26.58 -5.395 26.91 -4.375 27.25 C-4.69038988 30.16735638 -4.97618959 31.82051187 -7 34 C-10.08216219 35.62219063 -12.93228387 35.9189696 -16.375 36.25 C-15.82791273 38.78744315 -15.82791273 38.78744315 -14.375 41.25 C-12.38214063 41.62366113 -10.38136471 41.95740515 -8.375 42.25 C-7.0625 44.25 -7.0625 44.25 -6.375 46.25 C-5.32637906 47.50156054 -5.32637906 47.50156054 -3 47.5625 C-0.33722466 47.50057293 -0.33722466 47.50057293 1.27075195 45.77441406 C3.23420055 42.11440711 2.99527325 38.59365848 2.91796875 34.546875 C2.91160149 33.29019012 2.91160149 33.29019012 2.90510559 32.00811768 C2.88834408 29.33841498 2.85069711 26.66947363 2.8125 24 C2.79744987 22.18751092 2.78376203 20.37500998 2.77148438 18.5625 C2.73844889 14.12470769 2.68668443 9.68748283 2.625 5.25 C1.305 4.92 -0.015 4.59 -1.375 4.25 Z " fill="#000000" transform="translate(24.375,6.75)"/>
<path d="M0 0 C3.375 -0.125 3.375 -0.125 7 0 C9 2 9 2 9.25 5 C9 8 9 8 7 10 C3.375 10.125 3.375 10.125 0 10 C-0.33 9.01 -0.66 8.02 -1 7 C-6.61 7 -12.22 7 -18 7 C-18 5.68 -18 4.36 -18 3 C-12.39 3 -6.78 3 -1 3 C-0.67 2.01 -0.34 1.02 0 0 Z M2 4 C2 4.66 2 5.32 2 6 C2.99 6 3.98 6 5 6 C5 5.34 5 4.68 5 4 C4.01 4 3.02 4 2 4 Z " fill="#000000" transform="translate(52,27)"/>
<path d="M0 0 C1.77007714 -0.08114106 3.54122098 -0.13925505 5.3125 -0.1875 C6.29863281 -0.22230469 7.28476562 -0.25710937 8.30078125 -0.29296875 C11.45209273 0.0490694 11.97583684 0.6990282 14 3 C16.31765729 3.71927295 18.65095874 4.3909893 21 5 C22 6 22 6 22.1875 9.4375 C22 13 22 13 20 15 C17 15.25 17 15.25 14 15 C11.32046159 12.32046159 11.02952644 9.60334255 10 6 C6.99382731 2.99382731 4.17618402 3.40414684 0 3 C0 2.01 0 1.02 0 0 Z M16 8 C16 8.99 16 9.98 16 11 C16.66 11 17.32 11 18 11 C18 10.01 18 9.02 18 8 C17.34 8 16.68 8 16 8 Z " fill="#000000" transform="translate(34,38)"/>
<path d="M0 0 C3.0625 0.1875 3.0625 0.1875 5.0625 2.1875 C5.375 5.6875 5.375 5.6875 5.0625 9.1875 C2.0625 11.1875 2.0625 11.1875 -1 12.1875 C-4.01805734 12.97371891 -4.01805734 12.97371891 -5.9375 15.1875 C-8.5390625 15.3828125 -8.5390625 15.3828125 -11.5625 15.3125 C-13.06683594 15.28542969 -13.06683594 15.28542969 -14.6015625 15.2578125 C-15.37242188 15.23460937 -16.14328125 15.21140625 -16.9375 15.1875 C-16.9375 14.1975 -16.9375 13.2075 -16.9375 12.1875 C-15.679375 12.084375 -14.42125 11.98125 -13.125 11.875 C-10.69064341 11.55299516 -9.17917259 11.33250356 -7.0625 10.0625 C-5.3928069 7.27967816 -4.74752438 4.31187974 -3.9375 1.1875 C-2.9375 0.1875 -2.9375 0.1875 0 0 Z M-0.9375 4.1875 C-0.9375 5.1775 -0.9375 6.1675 -0.9375 7.1875 C-0.2775 7.1875 0.3825 7.1875 1.0625 7.1875 C1.0625 6.1975 1.0625 5.2075 1.0625 4.1875 C0.4025 4.1875 -0.2575 4.1875 -0.9375 4.1875 Z " fill="#000000" transform="translate(50.9375,10.8125)"/>
<path d="M0 0 C3 0.25 3 0.25 5 2.25 C5.25 5.75 5.25 5.75 5 9.25 C3 11.25 3 11.25 0 11.5 C-3 11.25 -3 11.25 -5 9.25 C-5.25 5.75 -5.25 5.75 -5 2.25 C-3 0.25 -3 0.25 0 0 Z M-1 4.25 C-1 5.24 -1 6.23 -1 7.25 C-0.34 7.25 0.32 7.25 1 7.25 C1 6.26 1 5.27 1 4.25 C0.34 4.25 -0.32 4.25 -1 4.25 Z " fill="#000000" transform="translate(38,48.75)"/>
<path d="M0 0 C3 0.25 3 0.25 5 2.25 C5.25 5.75 5.25 5.75 5 9.25 C3 11.25 3 11.25 0 11.5 C-3 11.25 -3 11.25 -5 9.25 C-5.25 5.75 -5.25 5.75 -5 2.25 C-3 0.25 -3 0.25 0 0 Z M-1 4.25 C-1 5.24 -1 6.23 -1 7.25 C-0.34 7.25 0.32 7.25 1 7.25 C1 6.26 1 5.27 1 4.25 C0.34 4.25 -0.32 4.25 -1 4.25 Z " fill="#000000" transform="translate(38,3.75)"/>
</svg>
